<svg id="Capa_1" enable-background="new 0 0 479.998 479.998" height="512" viewBox="0 0 479.998 479.998" width="512" xmlns="http://www.w3.org/2000/svg"><path d="m16.8 339.999h295.2v-6.131c5.091-4.544 8.002-11.045 8-17.869v-32c0-2.7-.129-5.364-.367-8h48.367v-16h-51.327c-5.551-19.434-17.6-36.377-34.135-48h109.062c17.563 1.867 33.814 10.167 45.624 23.3 12.091 13.337 18.784 30.698 18.776 48.7h16c.01-21.972-8.16-43.16-22.918-59.438-14.563-16.18-34.634-26.35-56.294-28.523-.262-.026-.524-.039-.788-.039h-.022c5.215-6.914 8.031-15.34 8.022-24v-16c.007-16.509-4.61-32.689-13.328-46.708-15.839-25.47-44.772-41.292-75.511-41.292h-159.161c-39.744-.021-71.979 32.181-72 71.924-.011 21.787 9.849 42.407 26.815 56.076h-34.815c-39.744-.021-71.979 32.181-72 71.924-.011 21.787 9.849 42.407 26.815 56.076h-18.815c-4.418 0-8 3.582-8 8 .035 30.914 25.086 55.965 56 56h272v-16h-272c-19.001-.024-35.373-13.389-39.2-32zm149.82-16c.913-2.568 1.38-5.274 1.38-8v-2.815c3.214 3.975 6.84 7.601 10.815 10.815zm137.38-40v32c0 4.418-3.582 8-8 8s-8-3.582-8-8v-32c-.035-30.914-25.086-55.965-56-56h-8c-22.091 0-40 17.909-40 40s17.909 40 40 40h8c13.255 0 24-10.745 24-24s-10.745-24-24-24h-16v16h16c4.418 0 8 3.582 8 8s-3.582 8-8 8h-8c-13.255 0-24-10.745-24-24s10.745-24 24-24h8c22.091 0 40 17.909 40 40s-17.909 40-40 40h-8c-30.928 0-56-25.072-56-56s25.072-56 56-56h8c39.746.045 71.955 32.254 72 72zm-56.367-136h135.92c.293 2.647.447 16 .447 16h-136s-.129-13.364-.367-16zm-1.009 48c.912-2.569 1.377-5.274 1.376-8v-8h134.624c-3.4 9.581-12.458 15.987-22.624 16zm64.537-112c25.253 0 48.981 12.929 61.923 33.741 2.789 4.489 5.077 9.271 6.824 14.259h-135.235c-5.551-19.434-17.6-36.377-34.135-48zm-215.161 56c.035-30.914 25.086-55.965 56-56h8c39.746.045 71.955 32.254 72 72v32c0 4.418-3.582 8-8 8s-8-3.582-8-8v-32c-.035-30.914-25.086-55.965-56-56h-8c-22.091 0-40 17.909-40 40s17.909 40 40 40h8c13.255 0 24-10.745 24-24s-10.745-24-24-24h-16v16h16c4.418 0 8 3.582 8 8s-3.582 8-8 8h-8c-13.255 0-24-10.745-24-24s10.745-24 24-24h8c22.091 0 40 17.909 40 40s-17.909 40-40 40h-8c-30.914-.035-55.965-25.087-56-56zm82.815 72c-9.671 7.814-17.165 17.989-21.757 29.543-6.493-11.726-15.56-21.827-26.52-29.543zm-162.815 56c.035-30.914 25.086-55.965 56-56h8c39.746.045 71.955 32.254 72 72v32c0 4.418-3.582 8-8 8s-8-3.582-8-8v-32c-.035-30.914-25.086-55.965-56-56h-8c-22.091 0-40 17.909-40 40s17.909 40 40 40h8c13.255 0 24-10.745 24-24s-10.745-24-24-24h-16v16h16c4.418 0 8 3.582 8 8s-3.582 8-8 8h-8c-13.255 0-24-10.745-24-24s10.745-24 24-24h8c22.091 0 40 17.909 40 40s-17.909 40-40 40h-8c-30.914-.035-55.965-25.087-56-56z"/><path d="m454.719 298.992c-6.268-1.501-12.776-1.712-19.128-.622-.653-10.667-6.616-20.295-15.875-25.632-15.3-9.178-35.269-4.551-44.511 10.319-3.231 5.183-5.327 10.992-6.149 17.044-10.235-2.806-21.196-.472-29.4 6.261l-.344.276c-.047.038-.094.076-.14.115-6.49 5.377-10.502 13.172-11.105 21.579-.603 8.29 2.204 16.468 7.771 22.64l1.213 1.374c3.957 4.461 8.756 8.097 14.121 10.7-5.625 8.803-6.442 19.846-2.172 29.38 5.406 11.941 17.32 19.596 30.428 19.549 4.152.002 8.267-.784 12.126-2.317 5.789-2.322 11.043-5.801 15.44-10.225 6.311 7.908 15.867 12.529 25.985 12.566.78 0 1.567-.028 2.354-.085 8.633-.569 16.664-4.621 22.252-11.226 5.476-6.435 8.102-14.82 7.275-23.229-.599-6.305-2.508-12.416-5.605-17.94 9.951-3.557 17.443-11.885 19.932-22.155 3.967-17.016-7.009-34.229-24.468-38.372zm-65.919-7.493c4.656-7.494 14.833-9.759 22.733-5.017 6.687 3.953 9.584 11.553 7.277 18.32-9.757 6.052-16.776 15.664-19.571 26.8-7.067-4.236-12.061-11.213-13.793-19.269-.015-.081-.034-.163-.052-.243-1.663-7.043-.437-14.459 3.406-20.591zm-39.756 50.244-1.233-1.4c-2.689-2.958-4.053-6.886-3.777-10.874.306-4.057 2.245-7.816 5.374-10.417l.322-.258.121-.1c5.934-4.884 14.444-5.061 20.575-.427 3.125 11.211 10.386 20.82 20.318 26.886-6.487 5.143-14.794 7.411-22.994 6.278-.058-.009-.116-.016-.175-.023-7.157-.832-13.756-4.271-18.536-9.662zm36.556 53.062c-8.502 3.362-18.149-.515-21.96-8.826-2.923-6.518-.872-14.192 4.913-18.383 1.114.081 2.228.128 3.339.128 10.818-.003 21.295-3.785 29.62-10.694 3.24 7.443 3.094 15.926-.4 23.253l-.048.1c-3.135 6.598-8.664 11.754-15.464 14.422zm59.767-4.453c-2.816 3.307-6.854 5.328-11.189 5.6-7.766.572-14.934-4.187-17.42-11.566 4.207-10.665 4.09-22.549-.326-33.129 16.478-.738 30.965 11.523 32.5 27.7.409 4.124-.876 8.238-3.561 11.395zm18.233-56.623c-1.709 7.329-8.53 12.128-16.3 11.793-9.2-7.307-20.783-10.942-32.508-10.2 1.847-7.116 6.388-13.236 12.663-17.067 7.043-4.34 15.533-5.673 23.567-3.7 8.912 2.119 14.554 10.718 12.578 19.174z"/></svg>